<svg viewBox="0 0 24.00 24.00" fill="none" xmlns="http://www.w3.org/2000/svg"><g id="SVGRepo_bgCarrier" stroke-width="0"></g><g id="SVGRepo_tracerCarrier" stroke-linecap="round" stroke-linejoin="round" stroke="#CCCCCC" stroke-width="1.344"> <path d="M16 10.5H8M16 10.5L13 13.5M16 10.5L13 7.5M12 20H16M12 20H8M12 20V16M12 16H5C4.44772 16 4 15.5523 4 15V6C4 5.44771 4.44772 5 5 5H19C19.5523 5 20 5.44772 20 6V7M12 16H19C19.5523 16 20 15.5523 20 15V11" stroke="#ffffff" stroke-width="1.5" stroke-linecap="round" stroke-linejoin="round"></path> </g><g id="SVGRepo_iconCarrier"> <path d="M16 10.5H8M16 10.5L13 13.5M16 10.5L13 7.5M12 20H16M12 20H8M12 20V16M12 16H5C4.44772 16 4 15.5523 4 15V6C4 5.44771 4.44772 5 5 5H19C19.5523 5 20 5.44772 20 6V7M12 16H19C19.5523 16 20 15.5523 20 15V11" stroke="#ffffff" stroke-width="2.04" stroke-linecap="round" stroke-linejoin="round"></path> </g></svg>